<?xml version="1.0" encoding="UTF-8"?><svg id="uuid-7c5585ed-c4e3-4c5d-81d3-34173173d007" xmlns="http://www.w3.org/2000/svg" xmlns:xlink="http://www.w3.org/1999/xlink" viewBox="0 0 134.77 161.11"><defs><style>.uuid-8d84c14d-aa92-46ca-96bc-21a16be5350b{fill:#10cfc9;}.uuid-8d84c14d-aa92-46ca-96bc-21a16be5350b,.uuid-a899bdb9-7248-4e60-937f-3c659dfbb909{fill-rule:evenodd;stroke-width:0px;}.uuid-266feebe-9c79-4c0f-86d9-6ec86ed776b7{mask:url(#uuid-4ca7a777-6dd0-4873-929e-a4c712b51c3b);}.uuid-a899bdb9-7248-4e60-937f-3c659dfbb909{fill:#fff;}</style><mask id="uuid-4ca7a777-6dd0-4873-929e-a4c712b51c3b" x=".03" y="0" width="134.74" height="16.4" maskUnits="userSpaceOnUse"><g id="uuid-18b7bd8a-7901-4fbf-94b7-e366bf6ba88d"><polygon id="uuid-99734017-8767-43d7-9579-79cdd3bad652" class="uuid-a899bdb9-7248-4e60-937f-3c659dfbb909" points=".03 0 134.77 0 134.77 16.4 .03 16.4 .03 0"/></g></mask></defs><g id="uuid-d0060889-6383-43fc-8039-3b3907805908"><g id="uuid-d3a0007f-260d-4555-ac64-7014deaae970"><g class="uuid-266feebe-9c79-4c0f-86d9-6ec86ed776b7"><path id="uuid-b72b88c0-de52-48a4-9bcc-153010bdc62d" class="uuid-8d84c14d-aa92-46ca-96bc-21a16be5350b" d="m66.5,10.89c11.99,4.13,23.67,5.51,33.93,5.51,17.21,0,30.41-3.88,34.35-5.18v-6.72l-1.19.44c-.32.12-31.78,12.27-64.86.87C36.62-5.25,6.36,2.5.03,4.54v6.64l1.15-.36c.32-.12,32.31-11.31,65.32.06"/></g></g><path id="uuid-12fe3ba8-36c7-4a21-917f-ad76a80883b1" class="uuid-8d84c14d-aa92-46ca-96bc-21a16be5350b" d="m39.49,131.65c.2.63.38,1.26.54,1.9-.16-.64-.34-1.28-.54-1.9l-6.23-.43c-.45-1.1-.98-2.18-1.57-3.21.6,1.03,1.12,2.1,1.57,3.21l6.23.43"/><path id="uuid-2787cd17-0067-44b9-92f2-b34ebeef7729" class="uuid-8d84c14d-aa92-46ca-96bc-21a16be5350b" d="m24.41,119.68c-.96-.74-1.97-1.42-3.03-2.04,1.06.62,2.08,1.3,3.03,2.04"/><polyline id="uuid-864e6b58-7e61-4a08-8e52-b979ce383b93" class="uuid-8d84c14d-aa92-46ca-96bc-21a16be5350b" points="40.06 148.8 34.88 145.44 40.06 148.8"/><polyline id="uuid-bc7c3b57-14c9-4842-8c14-0b907bfb2bf4" class="uuid-8d84c14d-aa92-46ca-96bc-21a16be5350b" points="46 90.23 34.39 102.58 46 90.23"/><polyline id="uuid-902c18af-e655-43c9-b380-cb1ab27953e8" class="uuid-8d84c14d-aa92-46ca-96bc-21a16be5350b" points="42.17 85.65 27.18 95.56 42.17 85.65"/><path id="uuid-81dc64b3-1a72-4cf8-a94f-a9905ec5f054" class="uuid-8d84c14d-aa92-46ca-96bc-21a16be5350b" d="m75.81,153.88c.13.14.23.3.3.49-.07-.18-.17-.35-.3-.49"/><path id="uuid-1ae4210f-8742-474f-ba1c-67cc52e8803e" class="uuid-8d84c14d-aa92-46ca-96bc-21a16be5350b" d="m22.03,111.69h0c-2.44-1.18-5.06-2.1-7.82-2.72l-3.5,4.95,3.5-4.95c2.76.62,5.38,1.54,7.82,2.72"/><polyline id="uuid-5e55d457-5877-46d8-a3ac-8e60025f9dcf" class="uuid-8d84c14d-aa92-46ca-96bc-21a16be5350b" points="39.73 80.6 21.16 87.64 39.73 80.6"/><path id="uuid-1b5fbdd2-4333-4830-8c68-aee3bd702155" class="uuid-8d84c14d-aa92-46ca-96bc-21a16be5350b" d="m126.36,113.67c-.46.03-.92.07-1.38.13-.32.04-.63.08-.94.13.31-.05.62-.09.94-.13.46-.05.92-.09,1.38-.13"/><path id="uuid-44ba701e-a954-4fe2-9335-065c3154808c" class="uuid-8d84c14d-aa92-46ca-96bc-21a16be5350b" d="m58.63,154.36c.07-.18.17-.35.3-.49-.13.14-.24.3-.3.49"/><path id="uuid-abbb44ad-ed47-4e8e-b2d3-3f9059716d12" class="uuid-8d84c14d-aa92-46ca-96bc-21a16be5350b" d="m28.77,145.91c.29-1.28.47-2.6.51-3.95.01-.38.02-.76,0-1.13,0,.37,0,.75,0,1.13-.05,1.35-.22,2.68-.51,3.95"/><path id="uuid-4910b22f-6987-4fb9-aacc-56d5cce4b423" class="uuid-8d84c14d-aa92-46ca-96bc-21a16be5350b" d="m10.71,113.92c-.31-.04-.62-.09-.94-.13-.46-.05-.92-.09-1.38-.13.45.03.91.07,1.38.13.32.04.63.09.94.13"/><path id="uuid-f5ccfa66-5ada-42a0-8a2d-8e5893a6b8e5" class="uuid-8d84c14d-aa92-46ca-96bc-21a16be5350b" d="m8.03,33.81h0c.21-2.74.54-5.45.99-8.1-.45,2.65-.78,5.35-.99,8.1"/><polyline id="uuid-8ed6d3b0-ab5b-48b6-bc78-450c3d83f59e" class="uuid-8d84c14d-aa92-46ca-96bc-21a16be5350b" points="107.56 95.56 92.57 85.65 107.56 95.56"/><path id="uuid-87f8c73a-d9cc-4b20-a13f-e85404b21f31" class="uuid-8d84c14d-aa92-46ca-96bc-21a16be5350b" d="m39.35,68.42c-.12.45-.22.9-.31,1.35.09-.46.2-.91.31-1.35"/><polyline id="uuid-f7958bc0-01ee-4b4a-8f14-ed7881aec5fd" class="uuid-8d84c14d-aa92-46ca-96bc-21a16be5350b" points="100.35 102.58 88.74 90.23 100.35 102.58"/><path id="uuid-dc1eb23e-152b-4468-a7bf-3146bba9b8c6" class="uuid-8d84c14d-aa92-46ca-96bc-21a16be5350b" d="m126.71,33.81c-.21-2.74-.55-5.45-.99-8.1.45,2.65.78,5.35.99,8.1"/><path id="uuid-607c93ce-ebc8-481e-8c5b-58c4e954fb49" class="uuid-8d84c14d-aa92-46ca-96bc-21a16be5350b" d="m86.5,85.51c0,2.45-.24,4.92-.81,7.38.57-2.45.82-4.93.81-7.38"/><path id="uuid-95f51ed7-4ace-480f-866f-a20a76d1025c" class="uuid-8d84c14d-aa92-46ca-96bc-21a16be5350b" d="m95.71,69.78c-.09-.45-.19-.91-.31-1.35.12.45.22.9.31,1.35"/><polyline id="uuid-fbc47667-ed6d-4e6b-953c-95075e8491ad" class="uuid-8d84c14d-aa92-46ca-96bc-21a16be5350b" points="113.58 87.64 113.58 87.64 95.01 80.6 113.58 87.64"/><path id="uuid-e594597d-3f4f-41cb-864d-29e79e5c803f" class="uuid-8d84c14d-aa92-46ca-96bc-21a16be5350b" d="m47.46,56.19L9.51,23.08c-.18.87-.34,1.75-.49,2.63.15-.88.31-1.76.49-2.63l37.96,33.11"/><path id="uuid-3b8b29c1-0853-428c-8d83-909861c22a2e" class="uuid-8d84c14d-aa92-46ca-96bc-21a16be5350b" d="m44.33,59.2c-.28.32-.55.65-.82.99L7.76,41.14l35.75,19.05c.26-.33.54-.67.82-.99"/><path id="uuid-a7f81761-cb03-42ac-a945-31d4e53f9e70" class="uuid-8d84c14d-aa92-46ca-96bc-21a16be5350b" d="m124.03,113.92l-3.51-4.95c-2.76.62-5.38,1.53-7.82,2.72,2.44-1.19,5.06-2.1,7.82-2.72l3.51,4.95"/><path id="uuid-e12f8f75-9c8f-4370-bde7-9592f0ee1a07" class="uuid-8d84c14d-aa92-46ca-96bc-21a16be5350b" d="m126.98,41.14l-35.75,19.05c-.26-.33-.53-.67-.82-.99.28.32.55.65.82.99l35.75-19.05"/><path id="uuid-37bd33a3-8b98-4aff-8fd3-bbe56c7e1533" class="uuid-8d84c14d-aa92-46ca-96bc-21a16be5350b" d="m125.72,25.71c-.15-.88-.31-1.76-.49-2.63l-37.96,33.11,37.96-33.11c.18.87.34,1.75.49,2.63"/><polyline id="uuid-d6fe0591-49f7-4239-af0b-ff924c780a4a" class="uuid-8d84c14d-aa92-46ca-96bc-21a16be5350b" points="56.22 60.08 55.63 59.22 42.86 40.57 55.63 59.22 56.22 60.08"/><path id="uuid-9e3aa62c-ba80-4e9f-b880-6ead6913a6a4" class="uuid-8d84c14d-aa92-46ca-96bc-21a16be5350b" d="m113.37,117.64c-1.06.62-2.08,1.3-3.03,2.04.96-.74,1.97-1.42,3.03-2.04"/><path id="uuid-f418b81d-f542-4fa3-8d11-819bb25a2fb2" class="uuid-8d84c14d-aa92-46ca-96bc-21a16be5350b" d="m105.45,140.83c0,.38,0,.75,0,1.13.05,1.35.22,2.68.51,3.95-.29-1.28-.47-2.6-.51-3.95-.01-.38-.01-.75,0-1.13"/><polyline id="uuid-677d402d-648a-451c-a8ab-bc01e273ec7b" class="uuid-8d84c14d-aa92-46ca-96bc-21a16be5350b" points="99.86 145.44 94.68 148.8 99.86 145.44"/><path id="uuid-d6813ef0-023a-44f2-b7a7-6de6dc843daf" class="uuid-8d84c14d-aa92-46ca-96bc-21a16be5350b" d="m101.48,131.22c.45-1.1.98-2.17,1.57-3.21-.6,1.03-1.12,2.1-1.57,3.21l-6.23.43c-.2.63-.38,1.26-.54,1.91.16-.64.34-1.28.54-1.91l6.23-.43"/><path id="uuid-1c8b162a-7385-4aba-8954-c736f427e440" class="uuid-8d84c14d-aa92-46ca-96bc-21a16be5350b" d="m68.53,37.39c1.06-.5,1.76-1.46,1.88-2.41-.73-.55-1.86-.64-2.92-.14-1.06.5-1.76,1.46-1.88,2.42.73.55,1.86.64,2.91.14"/><path id="uuid-e18be448-5330-4b41-943f-b2f114ace7a1" class="uuid-8d84c14d-aa92-46ca-96bc-21a16be5350b" d="m117.19,20.89l-30.9,34.55c.33.25.66.49.98.75l37.96-33.11c.17.87.34,1.75.49,2.63.45,2.65.78,5.35.99,8.1l-36.3,25.39c.28.32.55.65.82.99l35.76-19.05c0,.35,0,.7,0,1.05-.04,2.64-.19,5.24-.44,7.8l-33.07,13.62c.21.39.41.78.6,1.19l31.67-8.81c-.41,2.47-.92,4.88-1.53,7.25l-28.82,5.19c.12.45.23.9.31,1.35l27.07-1.57c-.34,1.05-.69,2.08-1.06,3.11-.37,1.03-.77,2.04-1.17,3.04l-24.45-.62c0,.14.01.29,0,.43,0,.35-.02.69-.05,1.04l22.58,3.46c-.87,1.81-1.8,3.58-2.79,5.29l-20.41-4.83c-.13.5-.27.99-.43,1.48l18.57,7.04c-.53.8-1.07,1.59-1.62,2.36-.55.77-1.11,1.53-1.69,2.27l-16.86-8.02c-.26.48-.55.94-.84,1.4l14.99,9.9c-1.27,1.45-2.59,2.82-3.96,4.13l-13.64-10.68c-.39.42-.79.83-1.22,1.23l11.61,12.34c-1.53,1.26-3.1,2.44-4.72,3.53l-9.93-13.23c.57-2.45.82-4.93.81-7.38,0-2.45-.25-4.86-.68-7.2-.28-1.55-.64-3.07-1.05-4.54-.21-.73-.43-1.45-.65-2.16-.69-2.11-1.47-4.09-2.26-5.88-1.06-2.38-2.15-4.43-3.09-6.02l.35-.5,25.44-37.16c-10.91.41-23.81-.66-37-5.2-16.15-5.57-31.94-5.94-44.19-4.77l32.27,47.13.59.86c5.11,7.42,4.89,16.77-.56,24.02l-.71.94s0,0-.01,0l-15.83,21.07c-1.62-1.09-3.19-2.27-4.72-3.53l11.61-12.34c-.42-.4-.82-.81-1.22-1.23l-13.64,10.68c-1.37-1.31-2.69-2.69-3.96-4.13l14.99-9.9c-.29-.46-.58-.92-.84-1.4l-16.86,8.02c-.58-.74-1.14-1.5-1.69-2.27-.55-.77-1.09-1.56-1.62-2.36l18.57-7.04c-.16-.49-.3-.98-.43-1.48l-20.41,4.83c-.99-1.71-1.92-3.47-2.79-5.29l22.58-3.46c-.02-.35-.04-.69-.05-1.04,0-.14,0-.29,0-.43l-24.45.62c-.41-1-.8-2.01-1.17-3.04-.37-1.03-.73-2.07-1.06-3.11l27.08,1.57c.09-.45.19-.9.31-1.35l-28.82-5.19c-.61-2.37-1.11-4.78-1.53-7.25l31.67,8.81c.19-.4.39-.8.6-1.19l-33.07-13.62c-.25-2.56-.4-5.16-.44-7.8,0-.35,0-.7,0-1.05l35.75,19.05c.26-.34.54-.67.82-.99L8.03,33.81c.21-2.75.55-5.45,1-8.1.15-.88.31-1.76.49-2.63l37.96,33.11c.32-.26.65-.5.98-.75L11.27,13.87c-7.03,1.41-11.27,2.94-11.27,2.94v89.71c0,.61.03,1.33.09,2.12,1.44-.25,2.91-.42,4.39-.5l2.54,5.46c.45.01.91.03,1.37.06.46.03.91.08,1.38.13.32.04.63.08.94.13l3.51-4.95c2.76.62,5.38,1.53,7.82,2.72l-.66,5.95c1.06.62,2.08,1.3,3.03,2.04l5.62-2.61c2.03,1.82,3.83,3.87,5.34,6.1l-3.68,4.83c.59,1.04,1.12,2.1,1.57,3.21l6.23.43c.2.63.38,1.26.54,1.91.48,1.92.78,3.91.89,5.93l-5.71,2.43c0,.43-.03.87-.06,1.31-.03.44-.07.88-.13,1.32-.04.3-.09.6-.14.9l5.18,3.35c-.33,1.35-.74,2.66-1.24,3.94,6.39,3.01,13.81,5.84,22.44,8.38h0s-.39-3.96-.39-3.96h-.63c-.53,0-1.01-.25-1.31-.65-.18-.24-.3-.52-.32-.82l-.05-.72c-.01-.21.01-.41.08-.59.07-.18.17-.35.3-.49.26-.28.65-.45,1.08-.45h.49l-.35-3.49c-.02-.18.14-.35.33-.35h13.77c.19,0,.35.16.33.35l-.35,3.49h.49c.43,0,.81.17,1.08.45.13.14.23.3.3.49.06.18.09.39.08.59l-.05.72c-.02.31-.14.59-.32.82-.3.39-.78.65-1.31.65h-.64l-.39,3.96h0c8.64-2.53,16.06-5.37,22.44-8.38-.49-1.28-.9-2.59-1.24-3.94l5.18-3.35c-.05-.3-.1-.6-.14-.9-.06-.44-.1-.88-.13-1.32-.03-.44-.05-.87-.06-1.31l-5.71-2.43c.11-2.03.41-4.01.89-5.93.16-.64.34-1.28.54-1.91l6.23-.43c.45-1.1.98-2.17,1.57-3.21l-3.68-4.83c1.51-2.23,3.31-4.28,5.34-6.1l5.62,2.61c.96-.74,1.97-1.42,3.03-2.04l-.66-5.95c2.44-1.19,5.06-2.1,7.82-2.72l3.51,4.95c.31-.05.62-.09.94-.13.46-.05.92-.09,1.38-.13.46-.03.91-.05,1.37-.06l2.54-5.46c.74.04,1.48.1,2.21.18.73.08,1.46.19,2.18.31.06-.8.09-1.51.09-2.12V16.81s-6.83,2.51-17.55,4.08m-37.72,77.13c-1.57,2.94-3.55,4.96-5.46,6.92-2.65,2.72-5.39,5.51-7.07,10.81-1.51,4.76-1.67,9.99-.48,15.54.02.09-.02.19-.1.23-.03.02-.07.03-.1.03-.05,0-.1-.02-.14-.06-6.18-5.98-9.2-11.88-8.96-17.51.27-6.25,4.39-10.41,8.76-14.83,4.38-4.42,8.92-9.01,10.76-16.35,1.75-6.98.59-14.88-3.48-23.5-.04-.1-.03-.23.06-.29.08-.06.2-.06.28.01.18.17,15.16,21.8,5.94,39.01m-3.81,21.5c.44,2.08,1.22,3.71,2.05,5.42,1.1,2.28,2.49,4.68,2.68,9.44h-10.21c-.32-1.19-.6-2.38-.81-3.59-.47-2.69-1.44-8.3.43-14.21,1.48-4.65,3.76-6.97,6.42-9.66.59-.6,1.2-1.22,1.82-1.89.07-.08.19-.09.27-.02.08.06.11.18.06.28-2.69,5.21-3.6,9.99-2.71,14.22m-20.5,2.53c-.02-.14.06-.28.19-.32.13-.04.27.03.33.17,1.53,3.7,5.48,8.57,9.31,12.3.07.07.02.19-.08.19h-11.29c-.06,0-.09-.07-.06-.12,3.62-6.28,1.6-12.14,1.59-12.22m2.9-31.82c1.5-2.47,2.93-4.8,3.96-7.28,4.07-9.79,1.64-24.68-7.12-39.96-.81.15-3.43,1.15-5.1-2.64-.03-.07-.03-.16,0-.22.04-.07.11-.11.18-.11.08,0,5.49-.1,10.56-5.16,3.73-3.72,7.32-3.53,10.5-3.37,1.38.07,2.67.14,3.91-.1.51-.1,1.01-.2,1.49-.31,3.5-.75,6.52-1.4,8.38,2.45.04.07.03.16,0,.23-.04.07-.08.11-.19.11-.1,0-.21,0-.31,0-6.81,0-14.1,7.97-15.4,16.87-.67,4.56.63,7.68,1.49,9.74,3.79,8.01,4.9,15.29,3.32,21.64-1.66,6.65-5.94,10.98-10.08,15.17-4.53,4.57-9.18,9.28-9.49,16.55-.04,1.07.12,2.25.22,3.03.13.91.15,1.13-.1,1.18-.01,0-.02,0-.03,0-.05,0-.12-.02-.15-.05-.41-.33-1.74-5.76-2.07-8.86-.81-7.7,2.65-13.38,6.02-18.9m26.27,48.52c-1.59,3.28-4.88,6.02-8.15,7.83-.47.26-1.01.4-1.55.4h-14.72c-.38,0-.76-.09-1.09-.27-3.36-1.81-6.77-4.61-8.41-7.97-.35-.72.22-1.54,1.05-1.54h31.83c.83,0,1.4.82,1.05,1.54"/><path id="uuid-3024e6cf-ae69-4bb5-bc2c-4a49f2d02245" class="uuid-8d84c14d-aa92-46ca-96bc-21a16be5350b" d="m113.24,124.75c-1.11.93-2.11,1.96-3.02,3.08-.45.56-.87,1.14-1.26,1.73-.2.3-.39.6-.57.91-.36.62-.7,1.25-1,1.9-.15.32-.29.65-.43.99-.27.67-.5,1.35-.7,2.04-.3,1.04-.52,2.11-.66,3.21-.09.73-.14,1.47-.16,2.22,0,.37,0,.75,0,1.13.05,1.35.22,2.67.51,3.95.1.43.21.85.33,1.26,15.19-9.28,22.38-19.47,25.7-27.64-1.4-.21-2.85-.3-4.32-.26-5.54.17-10.57,2.22-14.43,5.48"/><path id="uuid-b7a446ae-ca2d-416d-a732-8c9d61999e72" class="uuid-8d84c14d-aa92-46ca-96bc-21a16be5350b" d="m29.29,141.96c.01-.38.02-.76,0-1.13-.01-.75-.07-1.49-.16-2.22-.14-1.09-.36-2.17-.66-3.21-.2-.7-.43-1.38-.7-2.04-.13-.33-.28-.66-.43-.99-.3-.65-.63-1.28-1-1.9-.18-.31-.37-.61-.57-.91-.4-.6-.82-1.18-1.27-1.73-.9-1.12-1.91-2.15-3.01-3.08-3.86-3.26-8.89-5.31-14.43-5.48-1.47-.04-2.91.05-4.32.26,3.32,8.17,10.5,18.36,25.69,27.65.12-.42.23-.84.33-1.26.29-1.28.47-2.6.51-3.95"/></g></svg>